<svg width="38" height="39" viewBox="0 0 38 39" fill="none" xmlns="http://www.w3.org/2000/svg">
<path d="M14.8333 0.75V4.91667H4.41667V34.0833H33.5833V23.6667H37.75V36.1667C37.75 36.7192 37.5305 37.2491 37.1398 37.6398C36.7491 38.0305 36.2192 38.25 35.6667 38.25H2.33333C1.7808 38.25 1.25089 38.0305 0.860194 37.6398C0.469493 37.2491 0.25 36.7192 0.25 36.1667V2.83333C0.25 2.2808 0.469493 1.75089 0.860194 1.36019C1.25089 0.969493 1.7808 0.75 2.33333 0.75H14.8333ZM30.6375 4.91667H21.0833V0.75H37.75V17.4167H33.5833V7.8625L19 22.4458L16.0542 19.5L30.6375 4.91667Z" fill="white"/>
</svg>
